<svg version="1.1" xmlns="http://www.w3.org/2000/svg" xmlns:xlink="http://www.w3.org/1999/xlink" xmlns:a="http://ns.adobe.com/AdobeSVGViewerExtensions/3.0/" x="0px" y="0px" width="8.8px" height="15.1px" viewBox="0 0 8.8 15.1" style="enable-background:new 0 0 8.8 15.1;" xml:space="preserve">
	<path style="fill:#CCCCCC;" fill="#CCCCCC" d="M0.2,0.9C0.1,1,0,1.1,0,1.3c0,0.1,0.1,0.2,0.2,0.3l6,5.9l-6,6C0.1,13.6,0,13.7,0,13.9c0,0.1,0.1,0.2,0.2,0.3 L0.9,15c0.1,0.1,0.2,0.1,0.3,0.1s0.2,0,0.3-0.1l7.1-7.1c0.1-0.1,0.2-0.2,0.2-0.3c0-0.1,0-0.2-0.2-0.3L1.6,0.2C1.5,0,1.4,0,1.3,0 S1,0,0.9,0.2L0.2,0.9L0.2,0.9z"/>
</svg>
